<?xml version="1.0" encoding="UTF-8"?>
<svg xmlns="http://www.w3.org/2000/svg" xmlns:xlink="http://www.w3.org/1999/xlink" width="24pt" height="24pt" viewBox="0 0 24 24" version="1.1">
<g id="surface27184175">
<path style=" stroke:none;fill-rule:nonzero;fill:rgb(20.392157%,59.607846%,85.882354%);fill-opacity:1;" d="M 11.679688 2.179688 C 11.253906 2.21875 10.878906 2.527344 10.78125 2.972656 L 10.226562 5.417969 L 7.515625 8.429688 C 7.183594 8.796875 7 9.273438 7 9.769531 L 7 19 C 7 20.105469 7.894531 21 9 21 L 17.03125 21 C 17.773438 21 18.441406 20.5625 18.746094 19.886719 L 21.746094 13.128906 C 21.914062 12.757812 22 12.351562 22 11.941406 L 22 11 C 22 9.898438 21.101562 9 20 9 L 13 9 C 13 9 14 6.628906 14 4.863281 C 14 3.25 12.960938 2.542969 12.109375 2.238281 C 11.964844 2.183594 11.820312 2.167969 11.679688 2.183594 Z M 3.5 9 C 2.671875 9 2 9.671875 2 10.5 L 2 19.5 C 2 20.328125 2.671875 21 3.5 21 C 4.328125 21 5 20.328125 5 19.5 L 5 10.5 C 5 9.671875 4.328125 9 3.5 9 Z M 3.5 9 "/>
</g>
</svg>
